# xmcd CD database file
#
# Track frame offsets:
#	150
#	13675
#	30327
#	48066
#	62427
#	73231
#	91060
#	100298
#	119651
#	134230
#
# Disc length: 2029 seconds
#
# Revision: 0
# Processed by: cddbd v1.4PL0 Copyright (c) Steve Scherf et al.
# Submitted via: CDex 1.51
#
DISCID=8507eb0a
DTITLE=GARTH BROOKS - THE COLLECTION
DYEAR=1995
DGENRE=Country
TTITLE0=AGAINST THE GRAIN
TTITLE1=NEW WAY TO FLY
TTITLE2=MUCH TOO YOUNG (To Feel This Damm Old)
TTITLE3=EVERY NOW AND THEN
TTITLE4=MR. RIGHT
TTITLE5=ALABAMA CLAY
TTITLE6=WILD HORSES
TTITLE7=COLD SHOULDER
TTITLE8=THE NIGHT I CALLED THE OLD MAN OUT
TTITLE9=THE COWBOY SONG
EXTD=YEAR: 1995
EXTT0=
EXTT1=
EXTT2=
EXTT3=
EXTT4=
EXTT5=
EXTT6=
EXTT7=
EXTT8=
EXTT9=
PLAYORDER=
